# Wavefront OBJ file automatically generated by Tiled2Unity

# Vertices (Count = 176)
v -1408 -768 0
v -1472 -768 0
v -1472 -704 0
v -1408 -704 0
v -1536 -768 0
v -1536 -704 0
v -1600 -768 0
v -1600 -704 0
v -1280 -832 0
v -1344 -832 0
v -1344 -768 0
v -1280 -768 0
v -1408 -832 0
v -1472 -832 0
v -1536 -832 0
v -1600 -832 0
v -1664 -832 0
v -1664 -768 0
v -1728 -832 0
v -1728 -768 0
v -1856 -832 0
v -1920 -832 0
v -1920 -768 0
v -1856 -768 0
v -1984 -832 0
v -1984 -768 0
v -2048 -832 0
v -2048 -768 0
v -2112 -832 0
v -2112 -768 0
v -1280 -896 0
v -1344 -896 0
v -1792 -896 0
v -1856 -896 0
v -1792 -832 0
v -1920 -896 0
v -2048 -896 0
v -2112 -896 0
v -2176 -896 0
v -2176 -832 0
v -1088 -960 0
v -1152 -960 0
v -1152 -896 0
v -1088 -896 0
v -1216 -960 0
v -1216 -896 0
v -1280 -960 0
v -1344 -960 0
v -1408 -960 0
v -1472 -960 0
v -1472 -896 0
v -1408 -896 0
v -1728 -960 0
v -1792 -960 0
v -1728 -896 0
v -1856 -960 0
v -1088 -1024 0
v -1152 -1024 0
v -1216 -1024 0
v -1280 -1024 0
v -1344 -1024 0
v -1408 -1024 0
v -1472 -1024 0
v -1536 -1024 0
v -1536 -960 0
v -1728 -1024 0
v -1792 -1024 0
v -1216 -1088 0
v -1280 -1088 0
v -1344 -1088 0
v -1472 -1088 0
v -1536 -1088 0
v -1600 -1088 0
v -1600 -1024 0
v -1664 -1088 0
v -1664 -1024 0
v -1728 -1088 0
v -1792 -1088 0
v -1856 -1088 0
v -1856 -1024 0
v -1280 -1152 0
v -1344 -1152 0
v -1408 -1152 0
v -1472 -1152 0
v -1408 -1088 0
v -1536 -1152 0
v -1600 -1152 0
v -1664 -1152 0
v -1792 -1152 0
v -1856 -1152 0
v -1920 -1152 0
v -1920 -1088 0
v -1984 -1152 0
v -1984 -1088 0
v -1280 -1216 0
v -1344 -1216 0
v -1408 -1216 0
v -1472 -1216 0
v -1536 -1216 0
v -1600 -1216 0
v -1664 -1216 0
v -1728 -1216 0
v -1728 -1152 0
v -1920 -1216 0
v -1984 -1216 0
v -1280 -1280 0
v -1344 -1280 0
v -1408 -1280 0
v -1472 -1280 0
v -1536 -1280 0
v -1600 -1280 0
v -1664 -1280 0
v -1728 -1280 0
v -1792 -1280 0
v -1792 -1216 0
v -1920 -1280 0
v -1984 -1280 0
v -1344 -1344 0
v -1408 -1344 0
v -1536 -1344 0
v -1600 -1344 0
v -1664 -1344 0
v -1728 -1344 0
v -1792 -1344 0
v -1856 -1344 0
v -1856 -1280 0
v -1920 -1344 0
v -1984 -1344 0
v -1344 -1408 0
v -1408 -1408 0
v -1536 -1408 0
v -1600 -1408 0
v -1792 -1408 0
v -1856 -1408 0
v -1920 -1408 0
v -1984 -1408 0
v -1344 -1472 0
v -1408 -1472 0
v -1536 -1472 0
v -1600 -1472 0
v -1792 -1472 0
v -1856 -1472 0
v -1920 -1472 0
v -1344 -1536 0
v -1408 -1536 0
v -1472 -1536 0
v -1536 -1536 0
v -1472 -1472 0
v -1600 -1536 0
v -1792 -1536 0
v -1856 -1536 0
v -1920 -1536 0
v -1344 -1600 0
v -1408 -1600 0
v -1472 -1600 0
v -1536 -1600 0
v -1728 -1600 0
v -1792 -1600 0
v -1728 -1536 0
v -1856 -1600 0
v -1344 -1664 0
v -1408 -1664 0
v -1472 -1664 0
v -1536 -1664 0
v -1664 -1664 0
v -1728 -1664 0
v -1664 -1600 0
v -1792 -1664 0
v -1344 -1728 0
v -1408 -1728 0
v -1472 -1728 0
v -1536 -1728 0
v -1344 -1792 0
v -1408 -1792 0
v -1472 -1792 0
v -1536 -1792 0

# Texture cooridinates (Count = 24)
vt 0.0001220703 0.9167888
vt 0.06237793 0.9167888
vt 0.06237793 0.9998779
vt 0.0001220703 0.9998779
vt 0.06262207 0.8334554
vt 0.1248779 0.8334554
vt 0.1248779 0.9165446
vt 0.06262207 0.9165446
vt 0.06262207 0.9167888
vt 0.1248779 0.9167888
vt 0.1248779 0.9998779
vt 0.06262207 0.9998779
vt 0.1876221 0.9167888
vt 0.2498779 0.9167888
vt 0.2498779 0.9998779
vt 0.1876221 0.9998779
vt 0.0001220703 0.8334554
vt 0.06237793 0.8334554
vt 0.06237793 0.9165446
vt 0.0001220703 0.9165446
vt 0.1876221 0.6667887
vt 0.2498779 0.6667887
vt 0.2498779 0.7498779
vt 0.1876221 0.7498779

# Normal
vn 0 0 -1

# Groups (Count = 1)

g mesh_0001
f 1/1/1 2/2/1 3/3/1 4/4/1
f 2/1/1 5/2/1 6/3/1 3/4/1
f 5/1/1 7/2/1 8/3/1 6/4/1
f 9/1/1 10/2/1 11/3/1 12/4/1
f 10/1/1 13/2/1 1/3/1 11/4/1
f 13/1/1 14/2/1 2/3/1 1/4/1
f 15/1/1 16/2/1 7/3/1 5/4/1
f 16/1/1 17/2/1 18/3/1 7/4/1
f 17/1/1 19/2/1 20/3/1 18/4/1
f 21/5/1 22/6/1 23/7/1 24/8/1
f 22/5/1 25/6/1 26/7/1 23/8/1
f 25/5/1 27/6/1 28/7/1 26/8/1
f 27/5/1 29/6/1 30/7/1 28/8/1
f 31/1/1 32/2/1 10/3/1 9/4/1
f 33/5/1 34/6/1 21/7/1 35/8/1
f 34/5/1 36/6/1 22/7/1 21/8/1
f 37/5/1 38/6/1 29/7/1 27/8/1
f 38/5/1 39/6/1 40/7/1 29/8/1
f 41/1/1 42/2/1 43/3/1 44/4/1
f 42/9/1 45/10/1 46/11/1 43/12/1
f 47/1/1 48/2/1 32/3/1 31/4/1
f 49/13/1 50/14/1 51/15/1 52/16/1
f 53/5/1 54/6/1 33/7/1 55/8/1
f 54/5/1 56/6/1 34/7/1 33/8/1
f 57/17/1 58/18/1 42/19/1 41/20/1
f 58/5/1 59/6/1 45/7/1 42/8/1
f 59/1/1 60/2/1 47/3/1 45/4/1
f 60/1/1 61/2/1 48/3/1 47/4/1
f 62/13/1 63/14/1 50/15/1 49/16/1
f 63/13/1 64/14/1 65/15/1 50/16/1
f 66/5/1 67/6/1 54/7/1 53/8/1
f 68/1/1 69/2/1 60/3/1 59/4/1
f 69/1/1 70/2/1 61/3/1 60/4/1
f 71/13/1 72/14/1 64/15/1 63/16/1
f 72/13/1 73/14/1 74/15/1 64/16/1
f 73/13/1 75/14/1 76/15/1 74/16/1
f 75/13/1 77/14/1 66/15/1 76/16/1
f 77/13/1 78/14/1 67/15/1 66/16/1
f 78/13/1 79/14/1 80/15/1 67/16/1
f 81/1/1 82/2/1 70/3/1 69/4/1
f 83/21/1 84/22/1 71/23/1 85/24/1
f 84/21/1 86/22/1 72/23/1 71/24/1
f 86/21/1 87/22/1 73/23/1 72/24/1
f 87/1/1 88/2/1 75/3/1 73/4/1
f 89/13/1 90/14/1 79/15/1 78/16/1
f 90/13/1 91/14/1 92/15/1 79/16/1
f 91/13/1 93/14/1 94/15/1 92/16/1
f 95/1/1 96/2/1 82/3/1 81/4/1
f 97/21/1 98/22/1 84/23/1 83/24/1
f 98/21/1 99/22/1 86/23/1 84/24/1
f 99/21/1 100/22/1 87/23/1 86/24/1
f 100/1/1 101/2/1 88/3/1 87/4/1
f 101/1/1 102/2/1 103/3/1 88/4/1
f 104/13/1 105/14/1 93/15/1 91/16/1
f 106/1/1 107/2/1 96/3/1 95/4/1
f 107/1/1 108/2/1 97/3/1 96/4/1
f 108/21/1 109/22/1 98/23/1 97/24/1
f 109/21/1 110/22/1 99/23/1 98/24/1
f 110/21/1 111/22/1 100/23/1 99/24/1
f 111/1/1 112/2/1 101/3/1 100/4/1
f 112/1/1 113/2/1 102/3/1 101/4/1
f 113/1/1 114/2/1 115/3/1 102/4/1
f 116/13/1 117/14/1 105/15/1 104/16/1
f 118/1/1 119/2/1 108/3/1 107/4/1
f 120/1/1 121/2/1 111/3/1 110/4/1
f 121/1/1 122/2/1 112/3/1 111/4/1
f 123/1/1 124/2/1 114/3/1 113/4/1
f 124/1/1 125/2/1 126/3/1 114/4/1
f 127/13/1 128/14/1 117/15/1 116/16/1
f 129/1/1 130/2/1 119/3/1 118/4/1
f 131/1/1 132/2/1 121/3/1 120/4/1
f 133/1/1 134/2/1 125/3/1 124/4/1
f 135/13/1 136/14/1 128/15/1 127/16/1
f 137/1/1 138/2/1 130/3/1 129/4/1
f 139/1/1 140/2/1 132/3/1 131/4/1
f 141/1/1 142/2/1 134/3/1 133/4/1
f 142/13/1 143/14/1 135/15/1 134/16/1
f 144/1/1 145/2/1 138/3/1 137/4/1
f 146/1/1 147/2/1 139/3/1 148/4/1
f 147/1/1 149/2/1 140/3/1 139/4/1
f 150/13/1 151/14/1 142/15/1 141/16/1
f 151/13/1 152/14/1 143/15/1 142/16/1
f 153/1/1 154/2/1 145/3/1 144/4/1
f 154/1/1 155/2/1 146/3/1 145/4/1
f 155/1/1 156/2/1 147/3/1 146/4/1
f 157/13/1 158/14/1 150/15/1 159/16/1
f 158/13/1 160/14/1 151/15/1 150/16/1
f 161/1/1 162/2/1 154/3/1 153/4/1
f 162/1/1 163/2/1 155/3/1 154/4/1
f 163/1/1 164/2/1 156/3/1 155/4/1
f 165/13/1 166/14/1 157/15/1 167/16/1
f 166/13/1 168/14/1 158/15/1 157/16/1
f 169/1/1 170/2/1 162/3/1 161/4/1
f 171/1/1 172/2/1 164/3/1 163/4/1
f 173/1/1 174/2/1 170/3/1 169/4/1
f 174/1/1 175/2/1 171/3/1 170/4/1
f 175/1/1 176/2/1 172/3/1 171/4/1

