# Wavefront OBJ file automatically generated by Tiled2Unity

# Vertices (Count = 256)
v 0 -0.32 0
v -0.32 -0.32 0
v -0.32 0 0
v 0 0 0
v -0.64 -0.32 0
v -0.64 0 0
v -0.96 -0.32 0
v -0.96 0 0
v -1.28 -0.32 0
v -1.28 0 0
v -1.6 -0.32 0
v -1.6 0 0
v -1.92 -0.32 0
v -1.92 0 0
v -2.24 -0.32 0
v -2.24 0 0
v -2.56 -0.32 0
v -2.56 0 0
v -2.88 -0.32 0
v -2.88 0 0
v -3.2 -0.32 0
v -3.2 0 0
v -3.52 -0.32 0
v -3.52 0 0
v -3.84 -0.32 0
v -3.84 0 0
v -4.16 -0.32 0
v -4.16 0 0
v -4.48 -0.32 0
v -4.48 0 0
v -4.8 -0.32 0
v -4.8 0 0
v 0 -0.64 0
v -0.32 -0.64 0
v -0.64 -0.64 0
v -0.96 -0.64 0
v -1.28 -0.64 0
v -1.6 -0.64 0
v -1.92 -0.64 0
v -2.24 -0.64 0
v -2.56 -0.64 0
v -2.88 -0.64 0
v -3.2 -0.64 0
v -3.52 -0.64 0
v -3.84 -0.64 0
v -4.16 -0.64 0
v -4.48 -0.64 0
v -4.8 -0.64 0
v 0 -0.96 0
v -0.32 -0.96 0
v -0.64 -0.96 0
v -0.96 -0.96 0
v -1.28 -0.96 0
v -1.6 -0.96 0
v -1.92 -0.96 0
v -2.24 -0.96 0
v -2.56 -0.96 0
v -2.88 -0.96 0
v -3.2 -0.96 0
v -3.52 -0.96 0
v -3.84 -0.96 0
v -4.16 -0.96 0
v -4.48 -0.96 0
v -4.8 -0.96 0
v 0 -1.28 0
v -0.32 -1.28 0
v -0.64 -1.28 0
v -0.96 -1.28 0
v -1.28 -1.28 0
v -1.6 -1.28 0
v -1.92 -1.28 0
v -2.24 -1.28 0
v -2.56 -1.28 0
v -2.88 -1.28 0
v -3.2 -1.28 0
v -3.52 -1.28 0
v -3.84 -1.28 0
v -4.16 -1.28 0
v -4.48 -1.28 0
v -4.8 -1.28 0
v 0 -1.6 0
v -0.32 -1.6 0
v -0.64 -1.6 0
v -0.96 -1.6 0
v -1.28 -1.6 0
v -1.6 -1.6 0
v -1.92 -1.6 0
v -2.24 -1.6 0
v -2.56 -1.6 0
v -2.88 -1.6 0
v -3.2 -1.6 0
v -3.52 -1.6 0
v -3.84 -1.6 0
v -4.16 -1.6 0
v -4.48 -1.6 0
v -4.8 -1.6 0
v 0 -1.92 0
v -0.32 -1.92 0
v -0.64 -1.92 0
v -0.96 -1.92 0
v -1.28 -1.92 0
v -1.6 -1.92 0
v -1.92 -1.92 0
v -2.24 -1.92 0
v -2.56 -1.92 0
v -2.88 -1.92 0
v -3.2 -1.92 0
v -3.52 -1.92 0
v -3.84 -1.92 0
v -4.16 -1.92 0
v -4.48 -1.92 0
v -4.8 -1.92 0
v 0 -2.24 0
v -0.32 -2.24 0
v -0.64 -2.24 0
v -0.96 -2.24 0
v -1.28 -2.24 0
v -1.6 -2.24 0
v -1.92 -2.24 0
v -2.24 -2.24 0
v -2.56 -2.24 0
v -2.88 -2.24 0
v -3.2 -2.24 0
v -3.52 -2.24 0
v -3.84 -2.24 0
v -4.16 -2.24 0
v -4.48 -2.24 0
v -4.8 -2.24 0
v 0 -2.56 0
v -0.32 -2.56 0
v -0.64 -2.56 0
v -0.96 -2.56 0
v -1.28 -2.56 0
v -1.6 -2.56 0
v -1.92 -2.56 0
v -2.24 -2.56 0
v -2.56 -2.56 0
v -2.88 -2.56 0
v -3.2 -2.56 0
v -3.52 -2.56 0
v -3.84 -2.56 0
v -4.16 -2.56 0
v -4.48 -2.56 0
v -4.8 -2.56 0
v 0 -2.88 0
v -0.32 -2.88 0
v -0.64 -2.88 0
v -0.96 -2.88 0
v -1.28 -2.88 0
v -1.6 -2.88 0
v -1.92 -2.88 0
v -2.24 -2.88 0
v -2.56 -2.88 0
v -2.88 -2.88 0
v -3.2 -2.88 0
v -3.52 -2.88 0
v -3.84 -2.88 0
v -4.16 -2.88 0
v -4.48 -2.88 0
v -4.8 -2.88 0
v 0 -3.2 0
v -0.32 -3.2 0
v -0.64 -3.2 0
v -0.96 -3.2 0
v -1.28 -3.2 0
v -1.6 -3.2 0
v -1.92 -3.2 0
v -2.24 -3.2 0
v -2.56 -3.2 0
v -2.88 -3.2 0
v -3.2 -3.2 0
v -3.52 -3.2 0
v -3.84 -3.2 0
v -4.16 -3.2 0
v -4.48 -3.2 0
v -4.8 -3.2 0
v 0 -3.52 0
v -0.32 -3.52 0
v -0.64 -3.52 0
v -0.96 -3.52 0
v -1.28 -3.52 0
v -1.6 -3.52 0
v -1.92 -3.52 0
v -2.24 -3.52 0
v -2.56 -3.52 0
v -2.88 -3.52 0
v -3.2 -3.52 0
v -3.52 -3.52 0
v -3.84 -3.52 0
v -4.16 -3.52 0
v -4.48 -3.52 0
v -4.8 -3.52 0
v 0 -3.84 0
v -0.32 -3.84 0
v -0.64 -3.84 0
v -0.96 -3.84 0
v -1.28 -3.84 0
v -1.6 -3.84 0
v -1.92 -3.84 0
v -2.24 -3.84 0
v -2.56 -3.84 0
v -2.88 -3.84 0
v -3.2 -3.84 0
v -3.52 -3.84 0
v -3.84 -3.84 0
v -4.16 -3.84 0
v -4.48 -3.84 0
v -4.8 -3.84 0
v 0 -4.16 0
v -0.32 -4.16 0
v -0.64 -4.16 0
v -0.96 -4.16 0
v -1.28 -4.16 0
v -1.6 -4.16 0
v -1.92 -4.16 0
v -2.24 -4.16 0
v -2.56 -4.16 0
v -2.88 -4.16 0
v -3.2 -4.16 0
v -3.52 -4.16 0
v -3.84 -4.16 0
v -4.16 -4.16 0
v -4.48 -4.16 0
v -4.8 -4.16 0
v 0 -4.48 0
v -0.32 -4.48 0
v -0.64 -4.48 0
v -0.96 -4.48 0
v -1.28 -4.48 0
v -1.6 -4.48 0
v -1.92 -4.48 0
v -2.24 -4.48 0
v -2.56 -4.48 0
v -2.88 -4.48 0
v -3.2 -4.48 0
v -3.52 -4.48 0
v -3.84 -4.48 0
v -4.16 -4.48 0
v -4.48 -4.48 0
v -4.8 -4.48 0
v 0 -4.8 0
v -0.32 -4.8 0
v -0.64 -4.8 0
v -0.96 -4.8 0
v -1.28 -4.8 0
v -1.6 -4.8 0
v -1.92 -4.8 0
v -2.24 -4.8 0
v -2.56 -4.8 0
v -2.88 -4.8 0
v -3.2 -4.8 0
v -3.52 -4.8 0
v -3.84 -4.8 0
v -4.16 -4.8 0
v -4.48 -4.8 0
v -4.8 -4.8 0

# Texture cooridinates (Count = 184)
vt 0.3334554 0.0001220703
vt 0.6665446 0.0001220703
vt 0.6665446 0.1665446
vt 0.3334554 0.1665446
vt 0.0001220703 0.0001220703
vt 0.3332113 0.0001220703
vt 0.3332113 0.1665446
vt 0.0001220703 0.1665446
vt 0.6667888 0.0001220703
vt 0.9998779 0.0001220703
vt 0.9998779 0.1665446
vt 0.6667888 0.1665446
vt 0.0001220703 0.5001221
vt 0.3332113 0.5001221
vt 0.3332113 0.6665446
vt 0.0001220703 0.6665446
vt 0.3334554 0.5001221
vt 0.6665446 0.5001221
vt 0.6665446 0.6665446
vt 0.3334554 0.6665446
vt 0.6667888 0.5001221
vt 0.9998779 0.5001221
vt 0.9998779 0.6665446
vt 0.6667888 0.6665446
vt 0.0001220703 0.3334554
vt 0.3332113 0.3334554
vt 0.3332113 0.4998779
vt 0.0001220703 0.4998779
vt 0.3334554 0.3334554
vt 0.6665446 0.3334554
vt 0.6665446 0.4998779
vt 0.3334554 0.4998779
vt 0.3334554 0.6667887
vt 0.6665446 0.6667887
vt 0.6665446 0.8332112
vt 0.3334554 0.8332112
vt 0.0001220703 0.1667888
vt 0.3332113 0.1667888
vt 0.3332113 0.3332112
vt 0.0001220703 0.3332112
vt 0.3334554 0.1667888
vt 0.6665446 0.1667888
vt 0.6665446 0.3332112
vt 0.3334554 0.3332112
vt 0.6667888 0.8334554
vt 0.9998779 0.8334554
vt 0.9998779 0.9998779
vt 0.6667888 0.9998779
vt 0.6667888 0.3334554
vt 0.9998779 0.3334554
vt 0.9998779 0.4998779
vt 0.6667888 0.4998779
vt 0.6667888 0.6667887
vt 0.9998779 0.6667887
vt 0.9998779 0.8332112
vt 0.6667888 0.8332112
vt 0.3334554 0.8334554
vt 0.6665446 0.8334554
vt 0.6665446 0.9998779
vt 0.3334554 0.9998779
vt 0.6667888 0.1667888
vt 0.9998779 0.1667888
vt 0.9998779 0.3332112
vt 0.6667888 0.3332112
vt 0.4998779 0.0001220703
vt 0.4998779 0.9998779
vt 0.0001220703 0.9998779
vt 0.5001221 0.0001220703
vt 0.5001221 0.9998779
vt 0.2498779 0.5001221
vt 0.2498779 0.9998779
vt 0.2498779 0.0001220703
vt 0.2498779 0.4998779
vt 0.5001221 0.3334554
vt 0.5001221 0.6665446
vt 0.8332112 0.3334554
vt 0.8332112 0.6665446
vt 0.8334554 0.3334554
vt 0.8334554 0.6665446
vt 0.1665446 0.3334554
vt 0.1665446 0.6665446
vt 0.1667887 0.3334554
vt 0.1667887 0.6665446
vt 0.4998779 0.3334554
vt 0.4998779 0.6665446
vt 0.5001221 0.3332112
vt 0.8332112 0.0001220703
vt 0.8332112 0.3332112
vt 0.8334554 0.0001220703
vt 0.8334554 0.3332112
vt 0.1665446 0.0001220703
vt 0.1665446 0.3332112
vt 0.1667887 0.0001220703
vt 0.1667887 0.3332112
vt 0.4998779 0.3332112
vt 0.8334554 0.6667887
vt 0.8334554 0.9998779
vt 0.5001221 0.6667887
vt 0.0001220703 0.6667887
vt 0.1665446 0.6667887
vt 0.1665446 0.9998779
vt 0.4998779 0.6667887
vt 0.1667887 0.6667887
vt 0.3332113 0.6667887
vt 0.3332113 0.9998779
vt 0.1667887 0.9998779
vt 0.5001221 0.5715506
vt 0.6665446 0.5715506
vt 0.6665446 0.7141637
vt 0.5001221 0.7141637
vt 0.6667888 0.5715506
vt 0.8332112 0.5715506
vt 0.8332112 0.7141637
vt 0.6667888 0.7141637
vt 0.8334554 0.5715506
vt 0.9998779 0.5715506
vt 0.9998779 0.7141637
vt 0.8334554 0.7141637
vt 0.0001220703 0.5715506
vt 0.1665446 0.5715506
vt 0.1665446 0.7141637
vt 0.0001220703 0.7141637
vt 0.1667887 0.5715506
vt 0.3332113 0.5715506
vt 0.3332113 0.7141637
vt 0.1667887 0.7141637
vt 0.3334554 0.5715506
vt 0.4998779 0.5715506
vt 0.4998779 0.7141637
vt 0.3334554 0.7141637
vt 0.0001220703 0.4286935
vt 0.1665446 0.4286935
vt 0.1665446 0.5713065
vt 0.0001220703 0.5713065
vt 0.1667887 0.4286935
vt 0.3332113 0.4286935
vt 0.3332113 0.5713065
vt 0.1667887 0.5713065
vt 0.3334554 0.4286935
vt 0.4998779 0.4286935
vt 0.4998779 0.5713065
vt 0.3334554 0.5713065
vt 0.0001220703 0.2858363
vt 0.1665446 0.2858363
vt 0.1665446 0.4284493
vt 0.0001220703 0.4284493
vt 0.1667887 0.2858363
vt 0.3332113 0.2858363
vt 0.3332113 0.4284493
vt 0.1667887 0.4284493
vt 0.3334554 0.2858363
vt 0.4998779 0.2858363
vt 0.4998779 0.4284493
vt 0.3334554 0.4284493
vt 0.0001220703 0.1429792
vt 0.1665446 0.1429792
vt 0.1665446 0.2855922
vt 0.0001220703 0.2855922
vt 0.1667887 0.1429792
vt 0.3332113 0.1429792
vt 0.3332113 0.2855922
vt 0.1667887 0.2855922
vt 0.3334554 0.1429792
vt 0.4998779 0.1429792
vt 0.4998779 0.2855922
vt 0.3334554 0.2855922
vt 0.0001220703 0.8572649
vt 0.1665446 0.8572649
vt 0.1667887 0.8572649
vt 0.3332113 0.8572649
vt 0.3334554 0.8572649
vt 0.4998779 0.8572649
vt 0.0001220703 0.7144078
vt 0.1665446 0.7144078
vt 0.1665446 0.8570208
vt 0.0001220703 0.8570208
vt 0.1667887 0.7144078
vt 0.3332113 0.7144078
vt 0.3332113 0.8570208
vt 0.1667887 0.8570208
vt 0.3334554 0.7144078
vt 0.4998779 0.7144078
vt 0.4998779 0.8570208
vt 0.3334554 0.8570208

# Normal
vn 0 0 -1

# Groups (Count = 7)

g mesh_0001
f 1/1/1 2/2/1 3/3/1 4/4/1
f 2/1/1 5/2/1 6/3/1 3/4/1
f 5/5/1 7/6/1 8/7/1 6/8/1
f 7/5/1 9/6/1 10/7/1 8/8/1
f 9/5/1 11/6/1 12/7/1 10/8/1
f 11/1/1 13/2/1 14/3/1 12/4/1
f 13/1/1 15/2/1 16/3/1 14/4/1
f 15/9/1 17/10/1 18/11/1 16/12/1
f 17/9/1 19/10/1 20/11/1 18/12/1
f 19/9/1 21/10/1 22/11/1 20/12/1
f 21/9/1 23/10/1 24/11/1 22/12/1
f 23/1/1 25/2/1 26/3/1 24/4/1
f 25/1/1 27/2/1 28/3/1 26/4/1
f 27/1/1 29/2/1 30/3/1 28/4/1
f 29/1/1 31/2/1 32/3/1 30/4/1
f 33/1/1 34/2/1 2/3/1 1/4/1
f 34/1/1 35/2/1 5/3/1 2/4/1
f 35/1/1 36/2/1 7/3/1 5/4/1
f 36/1/1 37/2/1 9/3/1 7/4/1
f 37/5/1 38/6/1 11/7/1 9/8/1
f 38/5/1 39/6/1 13/7/1 11/8/1
f 39/9/1 40/10/1 15/11/1 13/12/1
f 40/9/1 41/10/1 17/11/1 15/12/1
f 41/5/1 42/6/1 19/7/1 17/8/1
f 42/9/1 43/10/1 21/11/1 19/12/1
f 43/9/1 44/10/1 23/11/1 21/12/1
f 44/9/1 45/10/1 25/11/1 23/12/1
f 45/9/1 46/10/1 27/11/1 25/12/1
f 46/9/1 47/10/1 29/11/1 27/12/1
f 47/1/1 48/2/1 31/3/1 29/4/1
f 49/1/1 50/2/1 34/3/1 33/4/1
f 50/1/1 51/2/1 35/3/1 34/4/1
f 51/1/1 52/2/1 36/3/1 35/4/1
f 52/1/1 53/2/1 37/3/1 36/4/1
f 53/1/1 54/2/1 38/3/1 37/4/1
f 54/1/1 55/2/1 39/3/1 38/4/1
f 55/5/1 56/6/1 40/7/1 39/8/1
f 56/5/1 57/6/1 41/7/1 40/8/1
f 57/1/1 58/2/1 42/3/1 41/4/1
f 58/9/1 59/10/1 43/11/1 42/12/1
f 59/1/1 60/2/1 44/3/1 43/4/1
f 60/9/1 61/10/1 45/11/1 44/12/1
f 61/1/1 62/2/1 46/3/1 45/4/1
f 62/1/1 63/2/1 47/3/1 46/4/1
f 63/1/1 64/2/1 48/3/1 47/4/1
f 65/1/1 66/2/1 50/3/1 49/4/1
f 66/1/1 67/2/1 51/3/1 50/4/1
f 67/1/1 68/2/1 52/3/1 51/4/1
f 68/5/1 69/6/1 53/7/1 52/8/1
f 69/5/1 70/6/1 54/7/1 53/8/1
f 70/1/1 71/2/1 55/3/1 54/4/1
f 71/1/1 72/2/1 56/3/1 55/4/1
f 72/1/1 73/2/1 57/3/1 56/4/1
f 73/9/1 74/10/1 58/11/1 57/12/1
f 74/9/1 75/10/1 59/11/1 58/12/1
f 75/9/1 76/10/1 60/11/1 59/12/1
f 76/9/1 77/10/1 61/11/1 60/12/1
f 77/1/1 78/2/1 62/3/1 61/4/1
f 78/5/1 79/6/1 63/7/1 62/8/1
f 79/5/1 80/6/1 64/7/1 63/8/1
f 81/1/1 82/2/1 66/3/1 65/4/1
f 82/1/1 83/2/1 67/3/1 66/4/1
f 83/1/1 84/2/1 68/3/1 67/4/1
f 84/1/1 85/2/1 69/3/1 68/4/1
f 85/5/1 86/6/1 70/7/1 69/8/1
f 86/5/1 87/6/1 71/7/1 70/8/1
f 87/5/1 88/6/1 72/7/1 71/8/1
f 88/1/1 89/2/1 73/3/1 72/4/1
f 89/9/1 90/10/1 74/11/1 73/12/1
f 90/9/1 91/10/1 75/11/1 74/12/1
f 91/9/1 92/10/1 76/11/1 75/12/1
f 92/1/1 93/2/1 77/3/1 76/4/1
f 93/5/1 94/6/1 78/7/1 77/8/1
f 94/5/1 95/6/1 79/7/1 78/8/1
f 95/1/1 96/2/1 80/3/1 79/4/1
f 97/1/1 98/2/1 82/3/1 81/4/1
f 98/9/1 99/10/1 83/11/1 82/12/1
f 99/1/1 100/2/1 84/3/1 83/4/1
f 100/1/1 101/2/1 85/3/1 84/4/1
f 101/1/1 102/2/1 86/3/1 85/4/1
f 102/1/1 103/2/1 87/3/1 86/4/1
f 103/5/1 104/6/1 88/7/1 87/8/1
f 104/5/1 105/6/1 89/7/1 88/8/1
f 105/1/1 106/2/1 90/3/1 89/4/1
f 106/1/1 107/2/1 91/3/1 90/4/1
f 107/1/1 108/2/1 92/3/1 91/4/1
f 108/1/1 109/2/1 93/3/1 92/4/1
f 109/5/1 110/6/1 94/7/1 93/8/1
f 110/1/1 111/2/1 95/3/1 94/4/1
f 111/1/1 112/2/1 96/3/1 95/4/1
f 113/1/1 114/2/1 98/3/1 97/4/1
f 114/9/1 115/10/1 99/11/1 98/12/1
f 115/5/1 116/6/1 100/7/1 99/8/1
f 116/1/1 117/2/1 101/3/1 100/4/1
f 117/1/1 118/2/1 102/3/1 101/4/1
f 118/1/1 119/2/1 103/3/1 102/4/1
f 119/1/1 120/2/1 104/3/1 103/4/1
f 120/5/1 121/6/1 105/7/1 104/8/1
f 121/5/1 122/6/1 106/7/1 105/8/1
f 122/1/1 123/2/1 107/3/1 106/4/1
f 123/1/1 124/2/1 108/3/1 107/4/1
f 124/5/1 125/6/1 109/7/1 108/8/1
f 125/5/1 126/6/1 110/7/1 109/8/1
f 126/1/1 127/2/1 111/3/1 110/4/1
f 127/1/1 128/2/1 112/3/1 111/4/1
f 129/1/1 130/2/1 114/3/1 113/4/1
f 130/1/1 131/2/1 115/3/1 114/4/1
f 131/5/1 132/6/1 116/7/1 115/8/1
f 132/9/1 133/10/1 117/11/1 116/12/1
f 133/9/1 134/10/1 118/11/1 117/12/1
f 134/1/1 135/2/1 119/3/1 118/4/1
f 135/1/1 136/2/1 120/3/1 119/4/1
f 136/5/1 137/6/1 121/7/1 120/8/1
f 137/5/1 138/6/1 122/7/1 121/8/1
f 138/1/1 139/2/1 123/3/1 122/4/1
f 139/1/1 140/2/1 124/3/1 123/4/1
f 140/5/1 141/6/1 125/7/1 124/8/1
f 141/1/1 142/2/1 126/3/1 125/4/1
f 142/9/1 143/10/1 127/11/1 126/12/1
f 143/9/1 144/10/1 128/11/1 127/12/1
f 145/1/1 146/2/1 130/3/1 129/4/1
f 146/1/1 147/2/1 131/3/1 130/4/1
f 147/5/1 148/6/1 132/7/1 131/8/1
f 148/5/1 149/6/1 133/7/1 132/8/1
f 149/5/1 150/6/1 134/7/1 133/8/1
f 150/5/1 151/6/1 135/7/1 134/8/1
f 151/5/1 152/6/1 136/7/1 135/8/1
f 152/5/1 153/6/1 137/7/1 136/8/1
f 153/1/1 154/2/1 138/3/1 137/4/1
f 154/1/1 155/2/1 139/3/1 138/4/1
f 155/1/1 156/2/1 140/3/1 139/4/1
f 156/1/1 157/2/1 141/3/1 140/4/1
f 157/1/1 158/2/1 142/3/1 141/4/1
f 158/9/1 159/10/1 143/11/1 142/12/1
f 159/9/1 160/10/1 144/11/1 143/12/1
f 161/1/1 162/2/1 146/3/1 145/4/1
f 162/9/1 163/10/1 147/11/1 146/12/1
f 163/5/1 164/6/1 148/7/1 147/8/1
f 164/1/1 165/2/1 149/3/1 148/4/1
f 165/1/1 166/2/1 150/3/1 149/4/1
f 166/5/1 167/6/1 151/7/1 150/8/1
f 167/5/1 168/6/1 152/7/1 151/8/1
f 168/9/1 169/10/1 153/11/1 152/12/1
f 169/9/1 170/10/1 154/11/1 153/12/1
f 170/1/1 171/2/1 155/3/1 154/4/1
f 171/1/1 172/2/1 156/3/1 155/4/1
f 172/1/1 173/2/1 157/3/1 156/4/1
f 173/1/1 174/2/1 158/3/1 157/4/1
f 174/1/1 175/2/1 159/3/1 158/4/1
f 175/9/1 176/10/1 160/11/1 159/12/1
f 177/1/1 178/2/1 162/3/1 161/4/1
f 178/9/1 179/10/1 163/11/1 162/12/1
f 179/1/1 180/2/1 164/3/1 163/4/1
f 180/1/1 181/2/1 165/3/1 164/4/1
f 181/1/1 182/2/1 166/3/1 165/4/1
f 182/9/1 183/10/1 167/11/1 166/12/1
f 183/1/1 184/2/1 168/3/1 167/4/1
f 184/1/1 185/2/1 169/3/1 168/4/1
f 185/9/1 186/10/1 170/11/1 169/12/1
f 186/9/1 187/10/1 171/11/1 170/12/1
f 187/1/1 188/2/1 172/3/1 171/4/1
f 188/1/1 189/2/1 173/3/1 172/4/1
f 189/1/1 190/2/1 174/3/1 173/4/1
f 190/1/1 191/2/1 175/3/1 174/4/1
f 191/9/1 192/10/1 176/11/1 175/12/1
f 193/1/1 194/2/1 178/3/1 177/4/1
f 194/9/1 195/10/1 179/11/1 178/12/1
f 195/9/1 196/10/1 180/11/1 179/12/1
f 196/5/1 197/6/1 181/7/1 180/8/1
f 197/1/1 198/2/1 182/3/1 181/4/1
f 198/9/1 199/10/1 183/11/1 182/12/1
f 199/9/1 200/10/1 184/11/1 183/12/1
f 200/9/1 201/10/1 185/11/1 184/12/1
f 201/1/1 202/2/1 186/3/1 185/4/1
f 202/9/1 203/10/1 187/11/1 186/12/1
f 203/9/1 204/10/1 188/11/1 187/12/1
f 204/5/1 205/6/1 189/7/1 188/8/1
f 205/5/1 206/6/1 190/7/1 189/8/1
f 206/1/1 207/2/1 191/3/1 190/4/1
f 207/1/1 208/2/1 192/3/1 191/4/1
f 209/1/1 210/2/1 194/3/1 193/4/1
f 210/1/1 211/2/1 195/3/1 194/4/1
f 211/9/1 212/10/1 196/11/1 195/12/1
f 212/5/1 213/6/1 197/7/1 196/8/1
f 213/5/1 214/6/1 198/7/1 197/8/1
f 214/5/1 215/6/1 199/7/1 198/8/1
f 215/5/1 216/6/1 200/7/1 199/8/1
f 216/5/1 217/6/1 201/7/1 200/8/1
f 217/5/1 218/6/1 202/7/1 201/8/1
f 218/9/1 219/10/1 203/11/1 202/12/1
f 219/9/1 220/10/1 204/11/1 203/12/1
f 220/1/1 221/2/1 205/3/1 204/4/1
f 221/5/1 222/6/1 206/7/1 205/8/1
f 222/1/1 223/2/1 207/3/1 206/4/1
f 223/1/1 224/2/1 208/3/1 207/4/1
f 225/1/1 226/2/1 210/3/1 209/4/1
f 226/1/1 227/2/1 211/3/1 210/4/1
f 227/9/1 228/10/1 212/11/1 211/12/1
f 228/9/1 229/10/1 213/11/1 212/12/1
f 229/1/1 230/2/1 214/3/1 213/4/1
f 230/5/1 231/6/1 215/7/1 214/8/1
f 231/1/1 232/2/1 216/3/1 215/4/1
f 232/1/1 233/2/1 217/3/1 216/4/1
f 233/5/1 234/6/1 218/7/1 217/8/1
f 234/5/1 235/6/1 219/7/1 218/8/1
f 235/5/1 236/6/1 220/7/1 219/8/1
f 236/1/1 237/2/1 221/3/1 220/4/1
f 237/5/1 238/6/1 222/7/1 221/8/1
f 238/1/1 239/2/1 223/3/1 222/4/1
f 239/1/1 240/2/1 224/3/1 223/4/1
f 241/1/1 242/2/1 226/3/1 225/4/1
f 242/1/1 243/2/1 227/3/1 226/4/1
f 243/1/1 244/2/1 228/3/1 227/4/1
f 244/9/1 245/10/1 229/11/1 228/12/1
f 245/9/1 246/10/1 230/11/1 229/12/1
f 246/9/1 247/10/1 231/11/1 230/12/1
f 247/9/1 248/10/1 232/11/1 231/12/1
f 248/9/1 249/10/1 233/11/1 232/12/1
f 249/9/1 250/10/1 234/11/1 233/12/1
f 250/1/1 251/2/1 235/3/1 234/4/1
f 251/1/1 252/2/1 236/3/1 235/4/1
f 252/1/1 253/2/1 237/3/1 236/4/1
f 253/1/1 254/2/1 238/3/1 237/4/1
f 254/1/1 255/2/1 239/3/1 238/4/1
f 255/1/1 256/2/1 240/3/1 239/4/1

g mesh_0002
f 35/13/1 36/14/1 7/15/1 5/16/1
f 36/17/1 37/18/1 9/19/1 7/20/1
f 37/17/1 38/18/1 11/19/1 9/20/1
f 38/17/1 39/18/1 13/19/1 11/20/1
f 39/17/1 40/18/1 15/19/1 13/20/1
f 40/21/1 41/22/1 17/23/1 15/24/1
f 51/25/1 52/26/1 36/27/1 35/28/1
f 52/29/1 53/30/1 37/31/1 36/32/1
f 53/29/1 54/30/1 38/31/1 37/32/1
f 54/29/1 55/30/1 39/31/1 38/32/1
f 55/29/1 56/30/1 40/31/1 39/32/1
f 56/33/1 57/34/1 41/35/1 40/36/1
f 57/17/1 58/18/1 42/19/1 41/20/1
f 58/21/1 59/22/1 43/23/1 42/24/1
f 67/25/1 68/26/1 52/27/1 51/28/1
f 68/29/1 69/30/1 53/31/1 52/32/1
f 69/29/1 70/30/1 54/31/1 53/32/1
f 70/29/1 71/30/1 55/31/1 54/32/1
f 71/29/1 72/30/1 56/31/1 55/32/1
f 72/29/1 73/30/1 57/31/1 56/32/1
f 73/29/1 74/30/1 58/31/1 57/32/1
f 74/33/1 75/34/1 59/35/1 58/36/1
f 75/17/1 76/18/1 60/19/1 59/20/1
f 76/17/1 77/18/1 61/19/1 60/20/1
f 77/17/1 78/18/1 62/19/1 61/20/1
f 78/21/1 79/22/1 63/23/1 62/24/1
f 83/37/1 84/38/1 68/39/1 67/40/1
f 84/41/1 85/42/1 69/43/1 68/44/1
f 85/41/1 86/42/1 70/43/1 69/44/1
f 86/45/1 87/46/1 71/47/1 70/48/1
f 87/29/1 88/30/1 72/31/1 71/32/1
f 88/29/1 89/30/1 73/31/1 72/32/1
f 89/29/1 90/30/1 74/31/1 73/32/1
f 90/29/1 91/30/1 75/31/1 74/32/1
f 91/29/1 92/30/1 76/31/1 75/32/1
f 92/29/1 93/30/1 77/31/1 76/32/1
f 93/29/1 94/30/1 78/31/1 77/32/1
f 94/49/1 95/50/1 79/51/1 78/52/1
f 101/13/1 102/14/1 86/15/1 85/16/1
f 102/53/1 103/54/1 87/55/1 86/56/1
f 103/29/1 104/30/1 88/31/1 87/32/1
f 104/29/1 105/30/1 89/31/1 88/32/1
f 105/29/1 106/30/1 90/31/1 89/32/1
f 106/29/1 107/30/1 91/31/1 90/32/1
f 107/29/1 108/30/1 92/31/1 91/32/1
f 108/29/1 109/30/1 93/31/1 92/32/1
f 109/57/1 110/58/1 94/59/1 93/60/1
f 110/61/1 111/62/1 95/63/1 94/64/1
f 117/25/1 118/26/1 102/27/1 101/28/1
f 118/29/1 119/30/1 103/31/1 102/32/1
f 119/29/1 120/30/1 104/31/1 103/32/1
f 120/57/1 121/58/1 105/59/1 104/60/1
f 121/41/1 122/42/1 106/43/1 105/44/1
f 122/41/1 123/42/1 107/43/1 106/44/1
f 123/41/1 124/42/1 108/43/1 107/44/1
f 124/41/1 125/42/1 109/43/1 108/44/1
f 125/61/1 126/62/1 110/63/1 109/64/1
f 132/13/1 133/14/1 117/15/1 116/16/1
f 133/53/1 134/54/1 118/55/1 117/56/1
f 134/29/1 135/30/1 119/31/1 118/32/1
f 135/57/1 136/58/1 120/59/1 119/60/1
f 136/61/1 137/62/1 121/63/1 120/64/1
f 146/13/1 147/14/1 131/15/1 130/16/1
f 147/17/1 148/18/1 132/19/1 131/20/1
f 148/53/1 149/54/1 133/55/1 132/56/1
f 149/29/1 150/30/1 134/31/1 133/32/1
f 150/29/1 151/30/1 135/31/1 134/32/1
f 151/49/1 152/50/1 136/51/1 135/52/1
f 162/25/1 163/26/1 147/27/1 146/28/1
f 163/29/1 164/30/1 148/31/1 147/32/1
f 164/29/1 165/30/1 149/31/1 148/32/1
f 165/29/1 166/30/1 150/31/1 149/32/1
f 166/29/1 167/30/1 151/31/1 150/32/1
f 167/33/1 168/34/1 152/35/1 151/36/1
f 168/17/1 169/18/1 153/19/1 152/20/1
f 169/21/1 170/22/1 154/23/1 153/24/1
f 178/25/1 179/26/1 163/27/1 162/28/1
f 179/29/1 180/30/1 164/31/1 163/32/1
f 180/29/1 181/30/1 165/31/1 164/32/1
f 181/29/1 182/30/1 166/31/1 165/32/1
f 182/29/1 183/30/1 167/31/1 166/32/1
f 183/29/1 184/30/1 168/31/1 167/32/1
f 184/29/1 185/30/1 169/31/1 168/32/1
f 185/33/1 186/34/1 170/35/1 169/36/1
f 186/17/1 187/18/1 171/19/1 170/20/1
f 187/17/1 188/18/1 172/19/1 171/20/1
f 188/21/1 189/22/1 173/23/1 172/24/1
f 194/25/1 195/26/1 179/27/1 178/28/1
f 195/29/1 196/30/1 180/31/1 179/32/1
f 196/57/1 197/58/1 181/59/1 180/60/1
f 197/41/1 198/42/1 182/43/1 181/44/1
f 198/41/1 199/42/1 183/43/1 182/44/1
f 199/45/1 200/46/1 184/47/1 183/48/1
f 200/29/1 201/30/1 185/31/1 184/32/1
f 201/29/1 202/30/1 186/31/1 185/32/1
f 202/29/1 203/30/1 187/31/1 186/32/1
f 203/29/1 204/30/1 188/31/1 187/32/1
f 204/33/1 205/34/1 189/35/1 188/36/1
f 205/21/1 206/22/1 190/23/1 189/24/1
f 210/25/1 211/26/1 195/27/1 194/28/1
f 211/29/1 212/30/1 196/31/1 195/32/1
f 212/49/1 213/50/1 197/51/1 196/52/1
f 215/37/1 216/38/1 200/39/1 199/40/1
f 216/41/1 217/42/1 201/43/1 200/44/1
f 217/41/1 218/42/1 202/43/1 201/44/1
f 218/45/1 219/46/1 203/47/1 202/48/1
f 219/29/1 220/30/1 204/31/1 203/32/1
f 220/29/1 221/30/1 205/31/1 204/32/1
f 221/49/1 222/50/1 206/51/1 205/52/1
f 226/37/1 227/38/1 211/39/1 210/40/1
f 227/41/1 228/42/1 212/43/1 211/44/1
f 228/61/1 229/62/1 213/63/1 212/64/1
f 234/37/1 235/38/1 219/39/1 218/40/1
f 235/41/1 236/42/1 220/43/1 219/44/1
f 236/41/1 237/42/1 221/43/1 220/44/1
f 237/61/1 238/62/1 222/63/1 221/64/1

g mesh_0003
f 34/5/1 35/65/1 5/66/1 2/67/1
f 62/68/1 63/10/1 47/47/1 46/69/1
f 99/68/1 100/10/1 84/47/1 83/69/1
f 107/5/1 108/65/1 92/66/1 91/67/1
f 118/68/1 119/10/1 103/47/1 102/69/1
f 145/68/1 146/10/1 130/47/1 129/69/1
f 190/68/1 191/10/1 175/47/1 174/69/1
f 196/68/1 197/10/1 181/47/1 180/69/1
f 202/5/1 203/65/1 187/66/1 186/67/1
f 245/5/1 246/65/1 230/66/1 229/67/1

g mesh_0004
f 52/13/1 53/70/1 37/71/1 36/67/1
f 68/5/1 69/72/1 53/73/1 52/28/1

g mesh_0005
f 165/5/1 166/10/1 150/47/1 149/67/1

g mesh_0006
f 38/74/1 39/30/1 13/19/1 11/75/1
f 39/49/1 40/76/1 15/77/1 13/24/1
f 40/78/1 41/50/1 17/23/1 15/79/1
f 44/25/1 45/80/1 25/81/1 23/16/1
f 45/82/1 46/26/1 27/15/1 25/83/1
f 46/29/1 47/84/1 29/85/1 27/20/1
f 54/68/1 55/2/1 39/43/1 38/86/1
f 55/9/1 56/87/1 40/88/1 39/64/1
f 56/89/1 57/10/1 41/63/1 40/90/1
f 60/5/1 61/91/1 45/92/1 44/40/1
f 61/93/1 62/6/1 46/39/1 45/94/1
f 62/1/1 63/65/1 47/95/1 46/44/1
f 91/96/1 92/54/1 76/47/1 75/97/1
f 97/98/1 98/34/1 82/59/1 81/69/1
f 99/96/1 100/54/1 84/47/1 83/97/1
f 105/74/1 106/30/1 90/19/1 89/75/1
f 106/49/1 107/76/1 91/77/1 90/24/1
f 107/78/1 108/50/1 92/23/1 91/79/1
f 113/74/1 114/30/1 98/19/1 97/75/1
f 114/49/1 115/76/1 99/77/1 98/24/1
f 115/78/1 116/50/1 100/23/1 99/79/1
f 121/68/1 122/2/1 106/43/1 105/86/1
f 122/9/1 123/87/1 107/88/1 106/64/1
f 123/89/1 124/10/1 108/63/1 107/90/1
f 129/68/1 130/2/1 114/43/1 113/86/1
f 130/9/1 131/87/1 115/88/1 114/64/1
f 131/89/1 132/10/1 116/63/1 115/90/1
f 186/98/1 187/34/1 171/59/1 170/69/1
f 188/96/1 189/54/1 173/47/1 172/97/1
f 194/99/1 195/100/1 179/101/1 178/67/1
f 196/33/1 197/102/1 181/66/1 180/60/1
f 202/74/1 203/30/1 187/19/1 186/75/1
f 203/49/1 204/76/1 188/77/1 187/24/1
f 204/78/1 205/50/1 189/23/1 188/79/1
f 210/25/1 211/80/1 195/81/1 194/16/1
f 211/82/1 212/26/1 196/15/1 195/83/1
f 212/29/1 213/84/1 197/85/1 196/20/1
f 218/68/1 219/2/1 203/43/1 202/86/1
f 219/9/1 220/87/1 204/88/1 203/64/1
f 220/89/1 221/10/1 205/63/1 204/90/1
f 226/5/1 227/91/1 211/92/1 210/40/1
f 227/93/1 228/6/1 212/39/1 211/94/1
f 228/1/1 229/65/1 213/95/1 212/44/1
f 246/99/1 247/100/1 231/101/1 230/67/1

g mesh_0007
f 13/103/1 15/104/1 16/105/1 14/106/1
f 25/103/1 27/104/1 28/105/1 26/106/1
f 90/103/1 91/104/1 75/105/1 74/106/1
f 98/103/1 99/104/1 83/105/1 82/106/1
f 187/103/1 188/104/1 172/105/1 171/106/1
f 195/103/1 196/104/1 180/105/1 179/106/1
f 247/103/1 248/104/1 232/105/1 231/106/1
f 255/103/1 256/104/1 240/105/1 239/106/1

g mesh_0008
f 11/107/1 13/108/1 14/109/1 12/110/1
f 13/111/1 15/112/1 16/113/1 14/114/1
f 15/115/1 17/116/1 18/117/1 16/118/1
f 23/119/1 25/120/1 26/121/1 24/122/1
f 25/123/1 27/124/1 28/125/1 26/126/1
f 27/127/1 29/128/1 30/129/1 28/130/1
f 57/131/1 58/132/1 42/133/1 41/134/1
f 58/135/1 59/136/1 43/137/1 42/138/1
f 59/139/1 60/140/1 44/141/1 43/142/1
f 65/131/1 66/132/1 50/133/1 49/134/1
f 66/135/1 67/136/1 51/137/1 50/138/1
f 67/139/1 68/140/1 52/141/1 51/142/1
f 73/143/1 74/144/1 58/145/1 57/146/1
f 74/147/1 75/148/1 59/149/1 58/150/1
f 75/151/1 76/152/1 60/153/1 59/154/1
f 81/143/1 82/144/1 66/145/1 65/146/1
f 82/147/1 83/148/1 67/149/1 66/150/1
f 83/151/1 84/152/1 68/153/1 67/154/1
f 89/155/1 90/156/1 74/157/1 73/158/1
f 90/159/1 91/160/1 75/161/1 74/162/1
f 91/163/1 92/164/1 76/165/1 75/166/1
f 97/155/1 98/156/1 82/157/1 81/158/1
f 98/159/1 99/160/1 83/161/1 82/162/1
f 99/163/1 100/164/1 84/165/1 83/166/1
f 154/131/1 155/132/1 139/133/1 138/134/1
f 155/135/1 156/136/1 140/137/1 139/138/1
f 156/139/1 157/140/1 141/141/1 140/142/1
f 162/167/1 163/168/1 147/101/1 146/67/1
f 163/169/1 164/170/1 148/105/1 147/106/1
f 164/171/1 165/172/1 149/66/1 148/60/1
f 170/143/1 171/144/1 155/145/1 154/146/1
f 171/147/1 172/148/1 156/149/1 155/150/1
f 172/151/1 173/152/1 157/153/1 156/154/1
f 178/173/1 179/174/1 163/175/1 162/176/1
f 179/177/1 180/178/1 164/179/1 163/180/1
f 180/181/1 181/182/1 165/183/1 164/184/1
f 186/155/1 187/156/1 171/157/1 170/158/1
f 187/159/1 188/160/1 172/161/1 171/162/1
f 188/163/1 189/164/1 173/165/1 172/166/1
f 194/119/1 195/120/1 179/121/1 178/122/1
f 195/123/1 196/124/1 180/125/1 179/126/1
f 196/127/1 197/128/1 181/129/1 180/130/1
f 214/131/1 215/132/1 199/133/1 198/134/1
f 215/135/1 216/136/1 200/137/1 199/138/1
f 216/139/1 217/140/1 201/141/1 200/142/1
f 222/131/1 223/132/1 207/133/1 206/134/1
f 223/135/1 224/136/1 208/137/1 207/138/1
f 230/143/1 231/144/1 215/145/1 214/146/1
f 231/147/1 232/148/1 216/149/1 215/150/1
f 232/151/1 233/152/1 217/153/1 216/154/1
f 238/143/1 239/144/1 223/145/1 222/146/1
f 239/147/1 240/148/1 224/149/1 223/150/1
f 246/155/1 247/156/1 231/157/1 230/158/1
f 247/159/1 248/160/1 232/161/1 231/162/1
f 248/163/1 249/164/1 233/165/1 232/166/1
f 254/155/1 255/156/1 239/157/1 238/158/1
f 255/159/1 256/160/1 240/161/1 239/162/1

