# Wavefront OBJ file automatically generated by Tiled2Unity

# Vertices (Count = 256)
v 0 -0.32 0
v -0.32 -0.32 0
v -0.32 0 0
v 0 0 0
v -0.64 -0.32 0
v -0.64 0 0
v -0.96 -0.32 0
v -0.96 0 0
v -1.28 -0.32 0
v -1.28 0 0
v -1.6 -0.32 0
v -1.6 0 0
v -1.92 -0.32 0
v -1.92 0 0
v -2.24 -0.32 0
v -2.24 0 0
v -2.56 -0.32 0
v -2.56 0 0
v -2.88 -0.32 0
v -2.88 0 0
v -3.2 -0.32 0
v -3.2 0 0
v -3.52 -0.32 0
v -3.52 0 0
v -3.84 -0.32 0
v -3.84 0 0
v -4.16 -0.32 0
v -4.16 0 0
v -4.48 -0.32 0
v -4.48 0 0
v -4.8 -0.32 0
v -4.8 0 0
v 0 -0.64 0
v -0.32 -0.64 0
v -0.64 -0.64 0
v -0.96 -0.64 0
v -1.28 -0.64 0
v -1.6 -0.64 0
v -1.92 -0.64 0
v -2.24 -0.64 0
v -2.56 -0.64 0
v -2.88 -0.64 0
v -3.2 -0.64 0
v -3.52 -0.64 0
v -3.84 -0.64 0
v -4.16 -0.64 0
v -4.48 -0.64 0
v -4.8 -0.64 0
v 0 -0.96 0
v -0.32 -0.96 0
v -0.64 -0.96 0
v -0.96 -0.96 0
v -1.28 -0.96 0
v -1.6 -0.96 0
v -1.92 -0.96 0
v -2.24 -0.96 0
v -2.56 -0.96 0
v -2.88 -0.96 0
v -3.2 -0.96 0
v -3.84 -0.96 0
v -4.16 -0.96 0
v -4.48 -0.96 0
v -4.8 -0.96 0
v 0 -1.28 0
v -0.32 -1.28 0
v -0.64 -1.28 0
v -0.96 -1.28 0
v -1.28 -1.28 0
v -1.6 -1.28 0
v -1.92 -1.28 0
v -2.24 -1.28 0
v -2.56 -1.28 0
v -2.88 -1.28 0
v -3.2 -1.28 0
v 0 -1.6 0
v -0.32 -1.6 0
v -0.64 -1.6 0
v -0.96 -1.6 0
v -1.28 -1.6 0
v -1.6 -1.6 0
v -1.92 -1.6 0
v -2.24 -1.6 0
v -2.56 -1.6 0
v -2.88 -1.6 0
v -3.2 -1.6 0
v 0 -1.92 0
v -0.32 -1.92 0
v -0.64 -1.92 0
v 0 -2.24 0
v -0.32 -2.24 0
v -0.64 -2.24 0
v -3.84 -2.24 0
v -4.16 -2.24 0
v -4.16 -1.92 0
v -3.84 -1.92 0
v -4.48 -2.24 0
v -4.48 -1.92 0
v -4.8 -2.24 0
v -4.8 -1.92 0
v 0 -2.56 0
v -0.32 -2.56 0
v -0.64 -2.56 0
v -3.84 -2.56 0
v -4.16 -2.56 0
v -4.48 -2.56 0
v -4.8 -2.56 0
v 0 -2.88 0
v -0.32 -2.88 0
v -0.64 -2.88 0
v -3.84 -2.88 0
v -4.16 -2.88 0
v -4.48 -2.88 0
v -4.8 -2.88 0
v 0 -3.2 0
v -0.32 -3.2 0
v -0.64 -3.2 0
v -3.84 -3.2 0
v -4.16 -3.2 0
v -4.48 -3.2 0
v -4.8 -3.2 0
v 0 -3.52 0
v -0.32 -3.52 0
v -0.64 -3.52 0
v -3.84 -3.52 0
v -4.16 -3.52 0
v -4.48 -3.52 0
v -4.8 -3.52 0
v 0 -3.84 0
v -0.32 -3.84 0
v -0.64 -3.84 0
v -3.52 -3.84 0
v -3.84 -3.84 0
v -3.52 -3.52 0
v -4.16 -3.84 0
v -4.48 -3.84 0
v -4.8 -3.84 0
v 0 -4.16 0
v -0.32 -4.16 0
v -0.64 -4.16 0
v -0.96 -4.16 0
v -0.96 -3.84 0
v -1.28 -4.16 0
v -1.28 -3.84 0
v -1.6 -4.16 0
v -1.6 -3.84 0
v -1.92 -4.16 0
v -1.92 -3.84 0
v -2.24 -4.16 0
v -2.24 -3.84 0
v -3.52 -4.16 0
v -3.84 -4.16 0
v -4.16 -4.16 0
v -4.48 -4.16 0
v -4.8 -4.16 0
v 0 -4.48 0
v -0.32 -4.48 0
v -0.64 -4.48 0
v -0.96 -4.48 0
v -1.28 -4.48 0
v -1.6 -4.48 0
v -1.92 -4.48 0
v -2.24 -4.48 0
v -2.56 -4.48 0
v -2.56 -4.16 0
v -2.88 -4.48 0
v -2.88 -4.16 0
v -3.2 -4.48 0
v -3.2 -4.16 0
v -3.52 -4.48 0
v -3.84 -4.48 0
v -4.16 -4.48 0
v -4.48 -4.48 0
v -4.8 -4.48 0
v 0 -4.8 0
v -0.32 -4.8 0
v -0.64 -4.8 0
v -0.96 -4.8 0
v -1.28 -4.8 0
v -1.6 -4.8 0
v -1.92 -4.8 0
v -2.24 -4.8 0
v -2.56 -4.8 0
v -2.88 -4.8 0
v -3.2 -4.8 0
v -3.52 -4.8 0
v -3.84 -4.8 0
v -4.16 -4.8 0
v -4.48 -4.8 0
v -4.8 -4.8 0
v -0.96 -2.56 0
v -1.28 -2.56 0
v -1.28 -2.24 0
v -0.96 -2.24 0
v -2.56 -2.88 0
v -2.88 -2.88 0
v -2.88 -2.56 0
v -2.56 -2.56 0
v -2.56 -3.2 0
v -2.88 -3.2 0
v -3.52 -0.96 0
v -3.52 -1.28 0
v -3.84 -1.28 0
v -4.16 -1.28 0
v -4.48 -1.28 0
v -4.8 -1.28 0
v -3.52 -1.6 0
v -3.84 -1.6 0
v -4.16 -1.6 0
v -4.48 -1.6 0
v -4.8 -1.6 0
v -0.96 -1.92 0
v -1.28 -1.92 0
v -1.6 -1.92 0
v -1.92 -1.92 0
v -2.24 -1.92 0
v -2.56 -1.92 0
v -2.88 -1.92 0
v -3.2 -1.92 0
v -3.52 -1.92 0
v -1.6 -2.24 0
v -1.92 -2.24 0
v -2.24 -2.24 0
v -2.56 -2.24 0
v -2.88 -2.24 0
v -3.2 -2.24 0
v -3.52 -2.24 0
v -1.6 -2.56 0
v -1.92 -2.56 0
v -2.24 -2.56 0
v -3.2 -2.56 0
v -3.52 -2.56 0
v -0.96 -2.88 0
v -1.28 -2.88 0
v -1.6 -2.88 0
v -1.92 -2.88 0
v -2.24 -2.88 0
v -3.2 -2.88 0
v -3.52 -2.88 0
v -0.96 -3.2 0
v -1.28 -3.2 0
v -1.6 -3.2 0
v -1.92 -3.2 0
v -2.24 -3.2 0
v -3.2 -3.2 0
v -3.52 -3.2 0
v -0.96 -3.52 0
v -1.28 -3.52 0
v -1.6 -3.52 0
v -1.92 -3.52 0
v -2.24 -3.52 0
v -2.56 -3.52 0
v -2.88 -3.52 0
v -3.2 -3.52 0
v -2.56 -3.84 0
v -2.88 -3.84 0
v -3.2 -3.84 0

# Texture cooridinates (Count = 147)
vt 0.0001220703 0.5001221
vt 0.3332113 0.5001221
vt 0.3332113 0.6665446
vt 0.0001220703 0.6665446
vt 0.6667888 0.6667887
vt 0.9998779 0.6667887
vt 0.9998779 0.8332112
vt 0.6667888 0.8332112
vt 0.3334554 0.3334554
vt 0.6665446 0.3334554
vt 0.6665446 0.4998779
vt 0.3334554 0.4998779
vt 0.3334554 0.6667887
vt 0.6665446 0.6667887
vt 0.6665446 0.8332112
vt 0.3334554 0.8332112
vt 0.3334554 0.5001221
vt 0.6665446 0.5001221
vt 0.6665446 0.6665446
vt 0.3334554 0.6665446
vt 0.0001220703 0.3334554
vt 0.3332113 0.3334554
vt 0.3332113 0.4998779
vt 0.0001220703 0.4998779
vt 0.3334554 0.8334554
vt 0.6665446 0.8334554
vt 0.6665446 0.9998779
vt 0.3334554 0.9998779
vt 0.6667888 0.8334554
vt 0.9998779 0.8334554
vt 0.9998779 0.9998779
vt 0.6667888 0.9998779
vt 0.3334554 0.1667888
vt 0.6665446 0.1667888
vt 0.6665446 0.3332112
vt 0.3334554 0.3332112
vt 0.6667888 0.1667888
vt 0.9998779 0.1667888
vt 0.9998779 0.3332112
vt 0.6667888 0.3332112
vt 0.6667888 0.5001221
vt 0.9998779 0.5001221
vt 0.9998779 0.6665446
vt 0.6667888 0.6665446
vt 0.0001220703 0.1667888
vt 0.3332113 0.1667888
vt 0.3332113 0.3332112
vt 0.0001220703 0.3332112
vt 0.6667888 0.3334554
vt 0.9998779 0.3334554
vt 0.9998779 0.4998779
vt 0.6667888 0.4998779
vt 0.6667888 0.0001220703
vt 0.9998779 0.0001220703
vt 0.9998779 0.1665446
vt 0.6667888 0.1665446
vt 0.3334554 0.0001220703
vt 0.6665446 0.0001220703
vt 0.6665446 0.1665446
vt 0.3334554 0.1665446
vt 0.0001220703 0.0001220703
vt 0.3332113 0.0001220703
vt 0.3332113 0.1665446
vt 0.0001220703 0.1665446
vt 0.5001221 0.0001220703
vt 0.5001221 0.9998779
vt 0.4998779 0.0001220703
vt 0.4998779 0.9998779
vt 0.0001220703 0.9998779
vt 0.1665446 0.3334554
vt 0.1665446 0.6665446
vt 0.1667887 0.3334554
vt 0.1667887 0.6665446
vt 0.4998779 0.3334554
vt 0.4998779 0.6665446
vt 0.1665446 0.0001220703
vt 0.1665446 0.3332112
vt 0.1667887 0.0001220703
vt 0.1667887 0.3332112
vt 0.4998779 0.3332112
vt 0.1667887 0.6667887
vt 0.3332113 0.6667887
vt 0.3332113 0.9998779
vt 0.1667887 0.9998779
vt 0.0001220703 0.7144078
vt 0.1665446 0.7144078
vt 0.1665446 0.8570208
vt 0.0001220703 0.8570208
vt 0.1667887 0.7144078
vt 0.3332113 0.7144078
vt 0.3332113 0.8570208
vt 0.1667887 0.8570208
vt 0.3334554 0.7144078
vt 0.4998779 0.7144078
vt 0.4998779 0.8570208
vt 0.3334554 0.8570208
vt 0.5001221 0.5715506
vt 0.6665446 0.5715506
vt 0.6665446 0.7141637
vt 0.5001221 0.7141637
vt 0.6667888 0.5715506
vt 0.8332112 0.5715506
vt 0.8332112 0.7141637
vt 0.6667888 0.7141637
vt 0.8334554 0.5715506
vt 0.9998779 0.5715506
vt 0.9998779 0.7141637
vt 0.8334554 0.7141637
vt 0.0001220703 0.5715506
vt 0.1665446 0.5715506
vt 0.1665446 0.7141637
vt 0.0001220703 0.7141637
vt 0.1667887 0.5715506
vt 0.3332113 0.5715506
vt 0.3332113 0.7141637
vt 0.1667887 0.7141637
vt 0.3334554 0.5715506
vt 0.4998779 0.5715506
vt 0.4998779 0.7141637
vt 0.3334554 0.7141637
vt 0.0001220703 0.8572649
vt 0.1665446 0.8572649
vt 0.1665446 0.9998779
vt 0.1667887 0.8572649
vt 0.3332113 0.8572649
vt 0.3334554 0.8572649
vt 0.4998779 0.8572649
vt 0.5001221 0.8572649
vt 0.6665446 0.8572649
vt 0.6667888 0.8572649
vt 0.8332112 0.8572649
vt 0.8332112 0.9998779
vt 0.8334554 0.8572649
vt 0.9998779 0.8572649
vt 0.8334554 0.9998779
vt 0.5001221 0.7144078
vt 0.6665446 0.7144078
vt 0.6665446 0.8570208
vt 0.5001221 0.8570208
vt 0.6667888 0.7144078
vt 0.8332112 0.7144078
vt 0.8332112 0.8570208
vt 0.6667888 0.8570208
vt 0.8334554 0.7144078
vt 0.9998779 0.7144078
vt 0.9998779 0.8570208
vt 0.8334554 0.8570208

# Normal
vn 0 0 -1

# Groups (Count = 7)

g mesh_0001
f 1/1/1 2/2/1 3/3/1 4/4/1
f 2/5/1 5/6/1 6/7/1 3/8/1
f 5/9/1 7/10/1 8/11/1 6/12/1
f 7/9/1 9/10/1 10/11/1 8/12/1
f 9/9/1 11/10/1 12/11/1 10/12/1
f 11/9/1 13/10/1 14/11/1 12/12/1
f 13/13/1 15/14/1 16/15/1 14/16/1
f 15/17/1 17/18/1 18/19/1 16/20/1
f 17/17/1 19/18/1 20/19/1 18/20/1
f 19/5/1 21/6/1 22/7/1 20/8/1
f 21/9/1 23/10/1 24/11/1 22/12/1
f 23/9/1 25/10/1 26/11/1 24/12/1
f 25/9/1 27/10/1 28/11/1 26/12/1
f 27/13/1 29/14/1 30/15/1 28/16/1
f 29/17/1 31/18/1 32/19/1 30/20/1
f 33/21/1 34/22/1 2/23/1 1/24/1
f 34/9/1 35/10/1 5/11/1 2/12/1
f 35/9/1 36/10/1 7/11/1 5/12/1
f 36/25/1 37/26/1 9/27/1 7/28/1
f 37/29/1 38/30/1 11/31/1 9/32/1
f 38/9/1 39/10/1 13/11/1 11/12/1
f 39/9/1 40/10/1 15/11/1 13/12/1
f 40/9/1 41/10/1 17/11/1 15/12/1
f 41/25/1 42/26/1 19/27/1 17/28/1
f 42/33/1 43/34/1 21/35/1 19/36/1
f 43/33/1 44/34/1 23/35/1 21/36/1
f 44/33/1 45/34/1 25/35/1 23/36/1
f 45/29/1 46/30/1 27/31/1 25/32/1
f 46/25/1 47/26/1 29/27/1 27/28/1
f 47/29/1 48/30/1 31/31/1 29/32/1
f 49/5/1 50/6/1 34/7/1 33/8/1
f 50/9/1 51/10/1 35/11/1 34/12/1
f 51/25/1 52/26/1 36/27/1 35/28/1
f 52/37/1 53/38/1 37/39/1 36/40/1
f 53/21/1 54/22/1 38/23/1 37/24/1
f 54/9/1 55/10/1 39/11/1 38/12/1
f 55/9/1 56/10/1 40/11/1 39/12/1
f 56/9/1 57/10/1 41/11/1 40/12/1
f 57/13/1 58/14/1 42/15/1 41/16/1
f 58/41/1 59/42/1 43/43/1 42/44/1
f 60/45/1 61/46/1 46/47/1 45/48/1
f 61/37/1 62/38/1 47/39/1 46/40/1
f 62/45/1 63/46/1 48/47/1 47/48/1
f 64/9/1 65/10/1 50/11/1 49/12/1
f 65/9/1 66/10/1 51/11/1 50/12/1
f 66/49/1 67/50/1 52/51/1 51/52/1
f 68/21/1 69/22/1 54/23/1 53/24/1
f 69/9/1 70/10/1 55/11/1 54/12/1
f 70/9/1 71/10/1 56/11/1 55/12/1
f 71/9/1 72/10/1 57/11/1 56/12/1
f 72/9/1 73/10/1 58/11/1 57/12/1
f 73/49/1 74/50/1 59/51/1 58/52/1
f 75/9/1 76/10/1 65/11/1 64/12/1
f 76/25/1 77/26/1 66/27/1 65/28/1
f 77/37/1 78/38/1 67/39/1 66/40/1
f 79/45/1 80/46/1 69/47/1 68/48/1
f 80/33/1 81/34/1 70/35/1 69/36/1
f 81/33/1 82/34/1 71/35/1 70/36/1
f 82/33/1 83/34/1 72/35/1 71/36/1
f 83/33/1 84/34/1 73/35/1 72/36/1
f 84/37/1 85/38/1 74/39/1 73/40/1
f 86/9/1 87/10/1 76/11/1 75/12/1
f 87/49/1 88/50/1 77/51/1 76/52/1
f 89/9/1 90/10/1 87/11/1 86/12/1
f 90/49/1 91/50/1 88/51/1 87/52/1
f 92/1/1 93/2/1 94/3/1 95/4/1
f 93/17/1 96/18/1 97/19/1 94/20/1
f 96/17/1 98/18/1 99/19/1 97/20/1
f 100/9/1 101/10/1 90/11/1 89/12/1
f 101/49/1 102/50/1 91/51/1 90/52/1
f 103/21/1 104/22/1 93/23/1 92/24/1
f 104/9/1 105/10/1 96/11/1 93/12/1
f 105/9/1 106/10/1 98/11/1 96/12/1
f 107/9/1 108/10/1 101/11/1 100/12/1
f 108/49/1 109/50/1 102/51/1 101/52/1
f 110/45/1 111/46/1 104/47/1 103/48/1
f 111/29/1 112/30/1 105/31/1 104/32/1
f 112/9/1 113/10/1 106/11/1 105/12/1
f 114/9/1 115/10/1 108/11/1 107/12/1
f 115/49/1 116/50/1 109/51/1 108/52/1
f 117/1/1 118/2/1 111/3/1 110/4/1
f 118/5/1 119/6/1 112/7/1 111/8/1
f 119/9/1 120/10/1 113/11/1 112/12/1
f 121/9/1 122/10/1 115/11/1 114/12/1
f 122/49/1 123/50/1 116/51/1 115/52/1
f 124/21/1 125/22/1 118/23/1 117/24/1
f 125/9/1 126/10/1 119/11/1 118/12/1
f 126/9/1 127/10/1 120/11/1 119/12/1
f 128/9/1 129/10/1 122/11/1 121/12/1
f 129/49/1 130/50/1 123/51/1 122/52/1
f 131/1/1 132/2/1 124/3/1 133/4/1
f 132/5/1 134/6/1 125/7/1 124/8/1
f 134/9/1 135/10/1 126/11/1 125/12/1
f 135/25/1 136/26/1 127/27/1 126/28/1
f 137/9/1 138/10/1 129/11/1 128/12/1
f 138/13/1 139/14/1 130/15/1 129/16/1
f 139/17/1 140/18/1 141/19/1 130/20/1
f 140/17/1 142/18/1 143/19/1 141/20/1
f 142/17/1 144/18/1 145/19/1 143/20/1
f 144/17/1 146/18/1 147/19/1 145/20/1
f 146/41/1 148/42/1 149/43/1 147/44/1
f 150/21/1 151/22/1 132/23/1 131/24/1
f 151/9/1 152/10/1 134/11/1 132/12/1
f 152/25/1 153/26/1 135/27/1 134/28/1
f 153/37/1 154/38/1 136/39/1 135/40/1
f 155/9/1 156/10/1 138/11/1 137/12/1
f 156/9/1 157/10/1 139/11/1 138/12/1
f 157/9/1 158/10/1 140/11/1 139/12/1
f 158/9/1 159/10/1 142/11/1 140/12/1
f 159/9/1 160/10/1 144/11/1 142/12/1
f 160/9/1 161/10/1 146/11/1 144/12/1
f 161/13/1 162/14/1 148/15/1 146/16/1
f 162/17/1 163/18/1 164/19/1 148/20/1
f 163/17/1 165/18/1 166/19/1 164/20/1
f 165/17/1 167/18/1 168/19/1 166/20/1
f 167/17/1 169/18/1 150/19/1 168/20/1
f 169/5/1 170/6/1 151/7/1 150/8/1
f 170/9/1 171/10/1 152/11/1 151/12/1
f 171/13/1 172/14/1 153/15/1 152/16/1
f 172/17/1 173/18/1 154/19/1 153/20/1
f 174/33/1 175/34/1 156/35/1 155/36/1
f 175/33/1 176/34/1 157/35/1 156/36/1
f 176/33/1 177/34/1 158/35/1 157/36/1
f 177/33/1 178/34/1 159/35/1 158/36/1
f 178/29/1 179/30/1 160/31/1 159/32/1
f 179/9/1 180/10/1 161/11/1 160/12/1
f 180/9/1 181/10/1 162/11/1 161/12/1
f 181/9/1 182/10/1 163/11/1 162/12/1
f 182/9/1 183/10/1 165/11/1 163/12/1
f 183/25/1 184/26/1 167/27/1 165/28/1
f 184/33/1 185/34/1 169/35/1 167/36/1
f 185/33/1 186/34/1 170/35/1 169/36/1
f 186/29/1 187/30/1 171/31/1 170/32/1
f 187/9/1 188/10/1 172/11/1 171/12/1
f 188/9/1 189/10/1 173/11/1 172/12/1

g mesh_0002
f 190/53/1 191/54/1 192/55/1 193/56/1
f 194/57/1 195/58/1 196/59/1 197/60/1
f 198/57/1 199/58/1 195/59/1 194/60/1

g mesh_0003
f 59/61/1 200/62/1 44/63/1 43/64/1
f 200/53/1 60/54/1 45/55/1 44/56/1
f 67/53/1 68/54/1 53/55/1 52/56/1
f 74/61/1 201/62/1 200/63/1 59/64/1
f 201/61/1 202/62/1 60/63/1 200/64/1
f 202/53/1 203/54/1 61/55/1 60/56/1
f 203/57/1 204/58/1 62/59/1 61/60/1
f 204/61/1 205/62/1 63/63/1 62/64/1
f 78/53/1 79/54/1 68/55/1 67/56/1
f 85/53/1 206/54/1 201/55/1 74/56/1
f 206/61/1 207/62/1 202/63/1 201/64/1
f 207/57/1 208/58/1 203/59/1 202/60/1
f 208/61/1 209/62/1 204/63/1 203/64/1
f 209/53/1 210/54/1 205/55/1 204/56/1
f 88/53/1 211/54/1 78/55/1 77/56/1
f 211/53/1 212/54/1 79/55/1 78/56/1
f 212/53/1 213/54/1 80/55/1 79/56/1
f 213/57/1 214/58/1 81/59/1 80/60/1
f 214/57/1 215/58/1 82/59/1 81/60/1
f 215/57/1 216/58/1 83/59/1 82/60/1
f 216/53/1 217/54/1 84/55/1 83/56/1
f 217/53/1 218/54/1 85/55/1 84/56/1
f 218/57/1 219/58/1 206/59/1 85/60/1
f 219/53/1 95/54/1 207/55/1 206/56/1
f 95/57/1 94/58/1 208/59/1 207/60/1
f 94/53/1 97/54/1 209/55/1 208/56/1
f 97/53/1 99/54/1 210/55/1 209/56/1
f 91/53/1 193/54/1 211/55/1 88/56/1
f 193/57/1 192/58/1 212/59/1 211/60/1
f 192/57/1 220/58/1 213/59/1 212/60/1
f 220/53/1 221/54/1 214/55/1 213/56/1
f 221/53/1 222/54/1 215/55/1 214/56/1
f 222/61/1 223/62/1 216/63/1 215/64/1
f 223/61/1 224/62/1 217/63/1 216/64/1
f 224/61/1 225/62/1 218/63/1 217/64/1
f 225/57/1 226/58/1 219/59/1 218/60/1
f 226/53/1 92/54/1 95/55/1 219/56/1
f 102/61/1 190/62/1 193/63/1 91/64/1
f 191/61/1 227/62/1 220/63/1 192/64/1
f 227/53/1 228/54/1 221/55/1 220/56/1
f 228/57/1 229/58/1 222/59/1 221/60/1
f 229/61/1 197/62/1 223/63/1 222/64/1
f 197/57/1 196/58/1 224/59/1 223/60/1
f 196/53/1 230/54/1 225/55/1 224/56/1
f 230/61/1 231/62/1 226/63/1 225/64/1
f 231/57/1 103/58/1 92/59/1 226/60/1
f 109/57/1 232/58/1 190/59/1 102/60/1
f 232/57/1 233/58/1 191/59/1 190/60/1
f 233/61/1 234/62/1 227/63/1 191/64/1
f 234/53/1 235/54/1 228/55/1 227/56/1
f 235/53/1 236/54/1 229/55/1 228/56/1
f 236/61/1 194/62/1 197/63/1 229/64/1
f 195/57/1 237/58/1 230/59/1 196/60/1
f 237/57/1 238/58/1 231/59/1 230/60/1
f 238/53/1 110/54/1 103/55/1 231/56/1
f 116/57/1 239/58/1 232/59/1 109/60/1
f 239/61/1 240/62/1 233/63/1 232/64/1
f 240/61/1 241/62/1 234/63/1 233/64/1
f 241/57/1 242/58/1 235/59/1 234/60/1
f 242/57/1 243/58/1 236/59/1 235/60/1
f 243/53/1 198/54/1 194/55/1 236/56/1
f 199/53/1 244/54/1 237/55/1 195/56/1
f 244/61/1 245/62/1 238/63/1 237/64/1
f 245/57/1 117/58/1 110/59/1 238/60/1
f 123/53/1 246/54/1 239/55/1 116/56/1
f 246/57/1 247/58/1 240/59/1 239/60/1
f 247/53/1 248/54/1 241/55/1 240/56/1
f 248/57/1 249/58/1 242/59/1 241/60/1
f 249/53/1 250/54/1 243/55/1 242/56/1
f 250/57/1 251/58/1 198/59/1 243/60/1
f 251/61/1 252/62/1 199/63/1 198/64/1
f 252/53/1 253/54/1 244/55/1 199/56/1
f 253/61/1 133/62/1 245/63/1 244/64/1
f 133/57/1 124/58/1 117/59/1 245/60/1
f 130/61/1 141/62/1 246/63/1 123/64/1
f 141/61/1 143/62/1 247/63/1 246/64/1
f 143/53/1 145/54/1 248/55/1 247/56/1
f 145/57/1 147/58/1 249/59/1 248/60/1
f 147/53/1 149/54/1 250/55/1 249/56/1
f 149/53/1 254/54/1 251/55/1 250/56/1
f 254/57/1 255/58/1 252/59/1 251/60/1
f 255/61/1 256/62/1 253/63/1 252/64/1
f 256/57/1 131/58/1 133/59/1 253/60/1
f 148/57/1 164/58/1 254/59/1 149/60/1
f 164/57/1 166/58/1 255/59/1 254/60/1
f 166/61/1 168/62/1 256/63/1 255/64/1
f 168/57/1 150/58/1 131/59/1 256/60/1

g mesh_0004
f 74/1/1 201/2/1 200/3/1 59/4/1
f 201/17/1 202/18/1 60/19/1 200/20/1
f 202/17/1 203/18/1 61/19/1 60/20/1
f 203/17/1 204/18/1 62/19/1 61/20/1
f 204/17/1 205/18/1 63/19/1 62/20/1
f 84/1/1 85/2/1 74/3/1 73/4/1
f 85/5/1 206/6/1 201/7/1 74/8/1
f 206/9/1 207/10/1 202/11/1 201/12/1
f 207/25/1 208/26/1 203/27/1 202/28/1
f 208/29/1 209/30/1 204/31/1 203/32/1
f 209/9/1 210/10/1 205/11/1 204/12/1
f 88/1/1 211/2/1 78/3/1 77/4/1
f 211/17/1 212/18/1 79/19/1 78/20/1
f 212/41/1 213/42/1 80/43/1 79/44/1
f 213/1/1 214/2/1 81/3/1 80/4/1
f 214/17/1 215/18/1 82/19/1 81/20/1
f 215/41/1 216/42/1 83/43/1 82/44/1
f 217/21/1 218/22/1 85/23/1 84/24/1
f 218/9/1 219/10/1 206/11/1 85/12/1
f 219/9/1 95/10/1 207/11/1 206/12/1
f 95/49/1 94/50/1 208/51/1 207/52/1
f 94/45/1 97/46/1 209/47/1 208/48/1
f 97/33/1 99/34/1 210/35/1 209/36/1
f 91/21/1 193/22/1 211/23/1 88/24/1
f 193/9/1 192/10/1 212/11/1 211/12/1
f 192/49/1 220/50/1 213/51/1 212/52/1
f 220/21/1 221/22/1 214/23/1 213/24/1
f 221/9/1 222/10/1 215/11/1 214/12/1
f 222/13/1 223/14/1 216/15/1 215/16/1
f 223/17/1 224/18/1 217/19/1 216/20/1
f 224/5/1 225/6/1 218/7/1 217/8/1
f 225/25/1 226/26/1 219/27/1 218/28/1
f 226/33/1 92/34/1 95/35/1 219/36/1
f 92/37/1 93/38/1 94/39/1 95/40/1
f 102/21/1 190/22/1 193/23/1 91/24/1
f 190/9/1 191/10/1 192/11/1 193/12/1
f 191/49/1 227/50/1 220/51/1 192/52/1
f 227/45/1 228/46/1 221/47/1 220/48/1
f 228/29/1 229/30/1 222/31/1 221/32/1
f 229/9/1 197/10/1 223/11/1 222/12/1
f 197/9/1 196/10/1 224/11/1 223/12/1
f 196/9/1 230/10/1 225/11/1 224/12/1
f 230/49/1 231/50/1 226/51/1 225/52/1
f 109/21/1 232/22/1 190/23/1 102/24/1
f 232/9/1 233/10/1 191/11/1 190/12/1
f 233/13/1 234/14/1 227/15/1 191/16/1
f 234/41/1 235/42/1 228/43/1 227/44/1
f 235/21/1 236/22/1 229/23/1 228/24/1
f 236/9/1 194/10/1 197/11/1 229/12/1
f 194/9/1 195/10/1 196/11/1 197/12/1
f 195/9/1 237/10/1 230/11/1 196/12/1
f 237/49/1 238/50/1 231/51/1 230/52/1
f 116/45/1 239/46/1 232/47/1 109/48/1
f 239/29/1 240/30/1 233/31/1 232/32/1
f 240/9/1 241/10/1 234/11/1 233/12/1
f 241/13/1 242/14/1 235/15/1 234/16/1
f 242/5/1 243/6/1 236/7/1 235/8/1
f 243/9/1 198/10/1 194/11/1 236/12/1
f 198/9/1 199/10/1 195/11/1 194/12/1
f 199/9/1 244/10/1 237/11/1 195/12/1
f 244/13/1 245/14/1 238/15/1 237/16/1
f 245/41/1 117/42/1 110/43/1 238/44/1
f 246/21/1 247/22/1 240/23/1 239/24/1
f 247/9/1 248/10/1 241/11/1 240/12/1
f 248/9/1 249/10/1 242/11/1 241/12/1
f 249/9/1 250/10/1 243/11/1 242/12/1
f 250/9/1 251/10/1 198/11/1 243/12/1
f 251/25/1 252/26/1 199/27/1 198/28/1
f 252/29/1 253/30/1 244/31/1 199/32/1
f 253/9/1 133/10/1 245/11/1 244/12/1
f 133/49/1 124/50/1 117/51/1 245/52/1
f 141/45/1 143/46/1 247/47/1 246/48/1
f 143/33/1 145/34/1 248/35/1 247/36/1
f 145/33/1 147/34/1 249/35/1 248/36/1
f 147/33/1 149/34/1 250/35/1 249/36/1
f 149/33/1 254/34/1 251/35/1 250/36/1
f 254/37/1 255/38/1 252/39/1 251/40/1
f 255/45/1 256/46/1 253/47/1 252/48/1
f 256/33/1 131/34/1 133/35/1 253/36/1
f 131/37/1 132/38/1 124/39/1 133/40/1

g mesh_0005
f 59/65/1 200/54/1 44/31/1 43/66/1
f 62/61/1 63/67/1 48/68/1 47/69/1
f 67/61/1 68/67/1 53/68/1 52/69/1
f 235/65/1 236/54/1 229/31/1 228/66/1
f 238/61/1 110/67/1 103/68/1 231/69/1
f 141/61/1 143/67/1 247/68/1 246/69/1

g mesh_0006
f 42/21/1 43/70/1 21/71/1 19/4/1
f 43/72/1 44/22/1 23/3/1 21/73/1
f 44/9/1 45/74/1 25/75/1 23/20/1
f 51/21/1 52/70/1 36/71/1 35/4/1
f 52/72/1 53/22/1 37/3/1 36/73/1
f 53/9/1 54/74/1 38/75/1 37/20/1
f 58/61/1 59/76/1 43/77/1 42/48/1
f 59/78/1 200/62/1 44/47/1 43/79/1
f 200/57/1 60/67/1 45/80/1 44/36/1
f 66/61/1 67/76/1 52/77/1 51/48/1
f 67/78/1 68/62/1 53/47/1 52/79/1
f 68/57/1 69/67/1 54/80/1 53/36/1
f 191/21/1 227/70/1 220/71/1 192/4/1
f 227/72/1 228/22/1 221/3/1 220/73/1
f 228/9/1 229/74/1 222/75/1 221/20/1
f 233/61/1 234/76/1 227/77/1 191/48/1
f 234/78/1 235/62/1 228/47/1 227/79/1
f 235/57/1 236/67/1 229/80/1 228/36/1
f 238/21/1 110/70/1 103/71/1 231/4/1
f 110/72/1 111/22/1 104/3/1 103/73/1
f 111/9/1 112/74/1 105/75/1 104/20/1
f 245/61/1 117/76/1 110/77/1 238/48/1
f 117/78/1 118/62/1 111/47/1 110/79/1
f 118/57/1 119/67/1 112/80/1 111/36/1
f 129/21/1 130/70/1 123/71/1 122/4/1
f 130/72/1 141/22/1 246/3/1 123/73/1
f 141/9/1 143/74/1 247/75/1 246/20/1
f 138/61/1 139/76/1 130/77/1 129/48/1
f 139/78/1 140/62/1 141/47/1 130/79/1
f 140/57/1 142/67/1 143/80/1 141/36/1

g mesh_0007
f 21/81/1 23/82/1 24/83/1 22/84/1
f 36/81/1 37/82/1 9/83/1 7/84/1
f 220/81/1 221/82/1 214/83/1 213/84/1
f 103/81/1 104/82/1 93/83/1 92/84/1
f 123/81/1 246/82/1 239/83/1 116/84/1

g mesh_0008
f 5/85/1 7/86/1 8/87/1 6/88/1
f 7/89/1 9/90/1 10/91/1 8/92/1
f 9/93/1 11/94/1 12/95/1 10/96/1
f 19/97/1 21/98/1 22/99/1 20/100/1
f 21/101/1 23/102/1 24/103/1 22/104/1
f 23/105/1 25/106/1 26/107/1 24/108/1
f 35/109/1 36/110/1 7/111/1 5/112/1
f 36/113/1 37/114/1 9/115/1 7/116/1
f 37/117/1 38/118/1 11/119/1 9/120/1
f 212/121/1 213/122/1 80/123/1 79/69/1
f 213/124/1 214/125/1 81/83/1 80/84/1
f 214/126/1 215/127/1 82/68/1 81/28/1
f 219/128/1 95/129/1 207/27/1 206/66/1
f 95/130/1 94/131/1 208/132/1 207/32/1
f 94/133/1 97/134/1 209/31/1 208/135/1
f 192/85/1 220/86/1 213/87/1 212/88/1
f 220/89/1 221/90/1 214/91/1 213/92/1
f 221/93/1 222/94/1 215/95/1 214/96/1
f 226/136/1 92/137/1 95/138/1 219/139/1
f 92/140/1 93/141/1 94/142/1 95/143/1
f 93/144/1 96/145/1 97/146/1 94/147/1
f 191/109/1 227/110/1 220/111/1 192/112/1
f 227/113/1 228/114/1 221/115/1 220/116/1
f 228/117/1 229/118/1 222/119/1 221/120/1
f 231/97/1 103/98/1 92/99/1 226/100/1
f 103/101/1 104/102/1 93/103/1 92/104/1
f 104/105/1 105/106/1 96/107/1 93/108/1
f 108/121/1 109/122/1 102/123/1 101/69/1
f 109/124/1 232/125/1 190/83/1 102/84/1
f 232/126/1 233/127/1 191/68/1 190/28/1
f 115/85/1 116/86/1 109/87/1 108/88/1
f 116/89/1 239/90/1 232/91/1 109/92/1
f 239/93/1 240/94/1 233/95/1 232/96/1
f 122/109/1 123/110/1 116/111/1 115/112/1
f 123/113/1 246/114/1 239/115/1 116/116/1
f 246/117/1 247/118/1 240/119/1 239/120/1

